<?xml version="1.0" encoding="UTF-8"?>
<svg id="_レイヤー_2" data-name="レイヤー 2" xmlns="http://www.w3.org/2000/svg" viewBox="0 0 597.56 514.22">
  <defs>
    <style>
      .cls-1 {
        fill: none;
        stroke-width: 20.73px;
      }

      .cls-1, .cls-2 {
        stroke: #fff;
        stroke-miterlimit: 10;
      }

      .cls-2 {
        fill: #fff;
        stroke-width: 8px;
      }
    </style>
  </defs>
  <g id="_レイヤー_1-2" data-name="レイヤー 1">
    <ellipse class="cls-1" cx="298.78" cy="257.11" rx="288.42" ry="246.75"/>
    <g>
      <g>
        <path class="cls-2" d="m86.96,206.82l15.56-79.52c1.36-6.77,5.19-10.31,11.33-10.31h34.94c15.83,0,24.7,11.54,24.7,24.61,0,13.84-9.69,25.53-20.75,26.76,8.46,2.46,13.1,11.69,13.1,20.76,0,14.3-8.87,30.45-31.67,30.45h-38.08c-7.23,0-10.65-4.77-9.15-12.77Zm49.41-29.99h-24.16l-4.64,24.15h24.98c8.87,0,13.92-6.46,13.92-13.69,0-6-3.82-10.46-10.1-10.46Zm6.96-41.22h-22.93l-4.5,22.61h24.43c9.42,0,12.42-6.92,12.42-12.92,0-5.38-3.96-9.69-9.42-9.69Z"/>
        <path class="cls-2" d="m252.56,220.66c-5.05,0-9.01-4.15-9.69-9.54l-1.09-9.84h-40.81l-7.1,14c-1.64,3.08-4.78,5.38-8.33,5.38-5.05,0-9.42-4.77-9.42-10.61,0-2,.68-3.85,1.5-5.54l42.72-79.52c3-5.38,8.33-9.07,14.33-9.07,8.33,0,15.15,6.92,16.38,15.84l11.33,75.98c.96,6.92-3.69,12.92-9.83,12.92Zm-13.1-38.3l-5.46-46.6-23.48,46.6h28.94Z"/>
        <path class="cls-2" d="m362.64,175.13l-3.82,19.53c-.96,5.08-2.87,9.84-6.14,13.23-8.6,8.46-19.66,13.54-32.49,13.54-24.84,0-44.77-17.69-44.77-45.99,0-34.61,23.2-60.14,54.73-60.14,13.24,0,23.34,5.54,30.3,13.84,6.14,7.08,1.5,18.3-6.55,18.3-2.87,0-5.32-1.38-7.1-3.54-4.5-5.84-11.6-9.23-19.38-9.23-16.92,0-31.8,16.92-31.8,39.38,0,15.53,9.69,27.99,25.66,27.99,7.78,0,13.79-3.38,18.43-7.84l2.32-12.46h-14.88c-4.5,0-8.19-4.31-8.19-9.38s3.69-9.38,8.19-9.38h27.43c6.69,0,9.42,5.08,8.05,12.15Z"/>
        <path class="cls-2" d="m372.27,206.82l15.56-79.52c1.37-6.77,5.19-10.31,11.33-10.31h45.72c4.5,0,8.33,4.15,8.33,9.54,0,5.08-3.82,9.23-8.33,9.23h-39.31l-4.23,22.3h34.53c4.5,0,8.33,4.15,8.33,9.54,0,5.08-3.82,9.23-8.33,9.23h-38.35l-4.64,23.84h35.49c4.64,0,8.46,4.31,8.46,9.38s-3.82,9.54-8.46,9.54h-46.95c-7.23,0-10.65-4.77-9.14-12.77Z"/>
        <path class="cls-2" d="m456.11,206.82l16.11-82.6c.96-4.77,4.78-8.31,9.28-8.31,6.01,0,10.78,6.15,9.28,13.07l-13.92,71.37h28.8c4.64,0,8.6,4.31,8.6,9.54s-3.96,9.69-8.6,9.69h-40.4c-7.23,0-10.65-4.77-9.14-12.77Z"/>
      </g>
      <g>
        <path class="cls-2" d="m76.68,342.5l18.61-77.71c1.63-6.61,6.2-10.07,13.55-10.07h41.79c18.94,0,29.55,11.27,29.55,24.05,0,13.53-11.59,24.95-24.81,26.15,10.12,2.41,15.67,11.42,15.67,20.29,0,13.98-10.61,29.76-37.88,29.76h-45.55c-8.65,0-12.73-4.66-10.94-12.47Zm59.1-29.31h-28.9l-5.55,23.6h29.88c10.61,0,16.65-6.31,16.65-13.38,0-5.86-4.57-10.22-12.08-10.22Zm8.33-40.28h-27.43l-5.39,22.09h29.22c11.26,0,14.86-6.76,14.86-12.62,0-5.26-4.73-9.47-11.26-9.47Z"/>
        <path class="cls-2" d="m274.71,356.02c-6.04,0-10.77-4.06-11.59-9.32l-1.31-9.62h-48.81l-8.49,13.68c-1.96,3.01-5.71,5.26-9.96,5.26-6.04,0-11.26-4.66-11.26-10.37,0-1.95.82-3.76,1.8-5.41l51.1-77.7c3.59-5.26,9.96-8.87,17.14-8.87,9.96,0,18.12,6.76,19.59,15.48l13.55,74.25c1.14,6.76-4.41,12.62-11.75,12.62Zm-15.67-37.42l-6.53-45.54-28.08,45.54h34.61Z"/>
        <path class="cls-2" d="m299.19,338.24c0-5.56,4.9-10.07,10.94-10.07,2.45,0,4.9.75,6.69,2.1,8.33,6.01,19.1,9.47,30.37,9.47s16.33-6.16,16.33-11.57c0-6.01-8.33-9.17-18.61-12.62-15.18-4.96-34.12-11.42-34.12-29.46,0-15.18,15.51-31.26,42.45-31.26,12.9,0,25.3,3.46,34.94,9.62,2.94,1.95,4.9,4.96,4.9,8.27,0,5.56-4.9,10.07-10.77,10.07-2.45,0-4.57-.75-6.37-1.95-7.84-5.26-17.3-7.67-25.63-7.67-8.98,0-15.18,4.96-15.18,10.52s8.33,8.42,18.61,11.87c15.18,5.11,34.45,11.87,34.45,29.31s-15.84,33.52-42.77,33.52c-16.49,0-31.34-4.66-41.79-12.02-2.61-1.8-4.41-4.81-4.41-8.12Z"/>
        <path class="cls-2" d="m404.3,346.85l18.61-77.71c1.63-6.61,6.2-10.07,13.55-10.07h54.69c5.39,0,9.96,4.06,9.96,9.32,0,4.96-4.57,9.02-9.96,9.02h-47.02l-5.06,21.79h41.3c5.39,0,9.96,4.06,9.96,9.32,0,4.96-4.57,9.02-9.96,9.02h-45.87l-5.55,23.3h42.45c5.55,0,10.12,4.21,10.12,9.17s-4.57,9.32-10.12,9.32h-56.16c-8.65,0-12.73-4.66-10.94-12.47Z"/>
      </g>
    </g>
  </g>
</svg>